<?xml version="1.0" encoding="utf-8"?>
<!-- Generator: Adobe Illustrator 16.0.0, SVG Export Plug-In . SVG Version: 6.00 Build 0)  -->
<!DOCTYPE svg PUBLIC "-//W3C//DTD SVG 1.1//EN" "http://www.w3.org/Graphics/SVG/1.1/DTD/svg11.dtd">
<svg version="1.1" id="Layer_1" xmlns="http://www.w3.org/2000/svg" xmlns:xlink="http://www.w3.org/1999/xlink" x="0px" y="0px"
	 width="250px" height="51.824px" viewBox="166.806 388.188 250 51.824" enable-background="new 166.806 388.188 250 51.824"
	 xml:space="preserve">
<g>
	<g>
		<path fill="#FCCA03" d="M172.513,427.832c0,0,0.815-4.789,18.243-16.51c0,0,12.536-7.236,11.618-18.039
			c0,0-1.63,3.567-4.994,2.446c0,0-3.16-0.713-1.732-5.809c0,0-1.63,3.975-4.586,3.261c0,0-3.16-0.306-3.364-4.994
			c0,0,0.102,3.873-2.854,4.892c0,0-2.751,1.325-5.198-3.363c0,0,1.223,3.975-0.917,5.708c0,0-2.548,2.038-5.708-1.121
			c0,0,2.548,2.751,1.223,5.503c0,0-1.019,2.65-5.81,1.223c0,0,3.363,1.427,3.262,4.179c0,0-0.102,3.873-4.892,3.771
			c0,0,4.179,0.408,4.79,3.261c0,0,0.408,3.159-3.16,4.791c0,0,4.383-1.427,5.402,1.528c0,0,0.917,3.363-0.713,5.708
			C173.125,424.266,171.8,426.609,172.513,427.832z"/>
		<g>
			<path fill="#5CB7F7" d="M212.057,404.901c0,0,0.816-1.121,0.51-6.115c0,0-0.102-4.892-8.459-7.542c0,0,2.14,2.548,2.14,7.236
				L212.057,404.901z"/>
			<path fill="#5CB7F7" d="M213.586,407.042l3.567,6.217c0,0,1.937-2.344,1.325-7.746c0,0-0.306-4.586-4.994-8.052
				C213.484,397.461,214.401,403.577,213.586,407.042z"/>
			<path fill="#5CB7F7" d="M219.293,406.634c0,0,0,5.198-1.325,8.153c0,0,1.121,6.726,0.816,8.255c0,0,1.324-3.262,1.426-6.829
				C220.312,416.214,220.618,408.774,219.293,406.634z"/>
			<path fill="#5CB7F7" d="M203.496,415.807c0,0,0.917,0.509,1.427-0.102c0,0,5.503-5.707,5.911-7.44c0,0,0.509-1.019,0-1.732
				c0,0-3.669-4.586-4.586-5.198c0,0-0.611-0.509-1.121,0.204c0,0-2.344,4.688-5.299,7.236c0,0-0.815,0.917-0.204,1.528
				L203.496,415.807z"/>
			<path fill="#5CB7F7" d="M215.828,416.316c0,0,0.611-1.019,0-1.834c0,0-0.714-2.14-2.956-5.299c0,0-0.306-0.102-0.816,0.407
				c0,0-3.975,6.013-6.216,7.644c0,0-0.714,0.917-0.102,1.631c0,0,2.242,3.261,2.751,4.79c0,0,0.509,0.51,1.121,0.102
				C209.509,423.756,213.892,419.985,215.828,416.316z"/>
			<path fill="#5CB7F7" d="M211.344,429.667c2.65-1.937,5.708-5.81,5.708-5.81c0.408-0.509,0.51-1.324,0.51-1.324
				c0.204-1.325-0.306-4.484-0.306-4.484c-0.204-0.917-0.917-0.204-0.917-0.204c-3.058,4.688-6.42,7.44-6.42,7.44
				c-0.612,0.509-0.306,1.121-0.306,1.121c0.204,0.203,0.917,3.261,0.917,3.261C210.732,430.177,211.344,429.667,211.344,429.667z"
				/>
			<path fill="#5CB7F7" d="M210.936,431.094v2.345c0,0,6.931-4.485,6.829-9.173C217.662,424.266,215.624,428.036,210.936,431.094z"
				/>
			<path fill="#5CB7F7" d="M192.591,424.367c0.408,0.714,1.325,0.103,1.325,0.103c1.223-0.408,7.337-5.504,7.337-5.504
				c1.02-0.815,0.408-1.631,0.408-1.631l-3.669-5.299c-0.714-1.019-1.631-0.204-1.631-0.204c-0.509,0.509-7.338,6.115-7.338,6.115
				c-0.612,0.611,0,1.529,0,1.529C190.043,421.004,192.591,424.367,192.591,424.367z"/>
			<path fill="#5CB7F7" d="M206.656,425.081c-0.204-0.407-2.854-4.688-2.854-4.688c-0.612-0.815-1.529-0.102-1.529-0.102
				c-2.956,2.548-7.338,5.402-7.338,5.402c-0.917,0.714-0.306,1.528-0.306,1.528l3.057,3.771c0.51,0.51,1.223,0.204,1.223,0.204
				c4.28-2.141,7.236-4.587,7.236-4.587C207.165,425.692,206.656,425.081,206.656,425.081z"/>
			<path fill="#5CB7F7" d="M208.082,431.909c0.917-0.611,0.815-1.121,0.815-1.121c0-0.815-0.917-3.159-0.917-3.159
				c-0.408-0.714-1.121-0.102-1.121-0.102c-2.65,1.937-7.542,4.688-7.542,4.688c-0.408,0.204-0.102,0.815-0.102,0.815l1.529,2.141
				c0.509,0.611,1.223,0.204,1.223,0.204C203.598,434.763,208.082,431.909,208.082,431.909z"/>
			<path fill="#5CB7F7" d="M201.865,436.292c-0.713,0.204-0.102,1.63-0.102,1.63c0.102,0.612,0.815,0.204,0.815,0.204
				c2.242-0.713,5.096-2.649,5.096-2.649c1.834-1.121,1.427-3.159,1.427-3.159C205.229,434.763,201.865,436.292,201.865,436.292z"/>
			<path fill="#5CB7F7" d="M184.031,429.769c0.509,0.714,1.528,0.204,1.528,0.204c0.713-0.306,5.096-3.262,5.096-3.262
				c0.713-0.713,0.204-1.324,0.204-1.324c-0.815-1.02-3.363-4.79-3.363-4.79c-0.917-1.121-1.834-0.102-1.834-0.102
				c-5.198,3.873-5.096,3.873-5.096,3.873c-0.713,0.611-0.102,1.325-0.102,1.325C181.584,427.425,184.031,429.769,184.031,429.769z"
				/>
			<path fill="#5CB7F7" d="M195.954,431.604c-1.019-1.02-2.956-3.567-2.956-3.567c-0.51-0.815-1.631,0-1.631,0
				c-1.937,1.02-4.892,2.854-4.892,2.854c-0.815,0.51,0,1.325,0,1.325c1.122,1.121,3.058,2.854,3.058,2.854
				c0.612,0.408,1.427,0,1.427,0c0.815-0.204,4.892-2.445,4.892-2.445C196.464,432.113,195.954,431.604,195.954,431.604z"/>
			<path fill="#5CB7F7" d="M193.304,438.126c0.51,0.51,1.325,0.204,1.325,0.204c1.223-0.51,4.484-1.732,4.484-1.732
				c0.408-0.204,0.102-0.611,0.102-0.611c-0.306-0.611-1.63-2.141-1.63-2.141c-0.611-0.611-1.427,0-1.427,0
				c-1.528,0.611-4.586,2.141-4.586,2.141c-0.713,0.306-0.102,0.814-0.102,0.814L193.304,438.126z"/>
			<path fill="#5CB7F7" d="M200.133,437.413c-0.305-0.612-0.917-0.204-0.917-0.204c-1.63,0.713-4.077,1.427-4.077,1.427
				c-0.917,0.204-0.408,0.611-0.408,0.611c1.529,1.224,5.198-0.306,5.198-0.306c0.611-0.204,0.509-0.611,0.509-0.611
				L200.133,437.413z"/>
			<path fill="#5CB7F7" d="M180.667,433.234c0.713-0.408,2.65-1.937,2.65-1.937c0.408-0.306-0.102-0.714-0.102-0.714
				c-1.427-1.019-3.873-4.28-3.873-4.28c-0.51-0.713-1.121-0.102-1.121-0.102c-2.344,2.038-2.548,2.344-2.548,2.344
				c-0.408,0.407,0.102,0.918,0.102,0.918c0.408,0.713,3.771,3.668,3.771,3.668C180.259,433.642,180.667,433.234,180.667,433.234z"
				/>
			<path fill="#5CB7F7" d="M186.374,437.311c0.815-0.407,2.242-1.121,2.242-1.121c0.408-0.306,0-0.713,0-0.713
				c-2.141-1.529-3.363-2.956-3.363-2.956c-0.713-0.611-1.427,0-1.427,0l-2.344,1.529c-0.407,0.306,0.102,0.713,0.102,0.713
				c1.937,1.427,3.669,2.446,3.669,2.446C185.967,437.515,186.374,437.311,186.374,437.311z"/>
			<path fill="#5CB7F7" d="M190.247,436.903c-0.509-0.407-1.121,0-1.121,0l-2.242,1.121c1.732,1.019,3.159,1.427,3.159,1.427
				c1.529,0.203,2.548-0.815,2.548-0.815C191.98,438.33,190.247,436.903,190.247,436.903z"/>
			<path fill="#5CB7F7" d="M190.655,439.757c1.937,0.407,3.873,0.204,3.873,0.204l-1.223-0.815
				C192.387,439.553,190.655,439.757,190.655,439.757z"/>
			<path fill="#5CB7F7" d="M179.24,433.846c-1.019-0.714-3.771-3.771-3.771-3.771c-0.407-0.408-0.917,0.611-0.917,0.611
				c-0.204,0.713,0.204,1.223,0.204,1.223c0.917,1.223,3.771,3.262,3.771,3.262c0.51,0.306,0.815-0.307,0.815-0.307
				C179.75,434.253,179.24,433.846,179.24,433.846z"/>
			<path fill="#5CB7F7" d="M184.845,437.515c-1.427-0.611-3.771-2.446-3.771-2.446c-0.306-0.407-0.714,0.204-0.714,0.204
				c-0.509,0.611,0,1.121,0,1.121c0.815,0.611,3.873,1.937,3.873,1.937c0.51,0.204,0.714-0.102,0.714-0.102
				C185.253,437.719,184.845,437.515,184.845,437.515z"/>
			<path fill="#5CB7F7" d="M185.763,438.534c0,0-0.815,0.815,3.363,1.12c0,0-1.631-0.713-2.446-1.223
				C186.68,438.432,186.069,438.126,185.763,438.534z"/>
		</g>
	</g>
	<g>
		<path fill="#FFFFFF" d="M245.689,402.456L235.6,427.629h-5.81l9.988-23.645h-13.249v-4.892h19.16V402.456z"/>
		<path fill="#FFFFFF" d="M250.989,398.379H262.2c1.019,0,1.937,0.102,2.956,0.204c0.917,0.102,1.834,0.306,2.751,0.612
			c0.815,0.306,1.63,0.611,2.344,1.019c0.713,0.408,1.325,1.019,1.834,1.63c0.509,0.612,0.917,1.427,1.223,2.344
			c0.305,0.917,0.407,1.937,0.407,3.16c0,3.057-0.917,5.401-2.854,7.032c-1.834,1.529-4.688,2.344-8.459,2.344h-6.013v11.007h-5.402
			V398.379L250.989,398.379z M256.391,411.628h6.115c1.019,0,1.834-0.102,2.548-0.306s1.325-0.51,1.732-0.815
			c0.408-0.407,0.815-0.815,1.019-1.325c0.204-0.51,0.306-1.121,0.306-1.834c0-0.815-0.204-1.529-0.51-2.039
			c-0.306-0.509-0.713-0.917-1.223-1.223c-0.51-0.306-1.121-0.51-1.835-0.612c-0.713-0.102-1.427-0.102-2.14-0.102h-6.013V411.628z"
			/>
		<path fill="#FFFFFF" d="M290.328,428.139c-2.14,0-3.873-0.307-5.503-0.815c-1.528-0.51-2.854-1.325-3.873-2.242
			c-1.019-1.02-1.834-2.141-2.446-3.465c-0.509-1.326-0.815-2.854-0.917-4.484h5.3c0.102,1.019,0.306,1.936,0.713,2.751
			c0.408,0.815,0.917,1.426,1.631,1.936c0.611,0.51,1.426,0.917,2.242,1.121s1.733,0.306,2.65,0.306
			c0.917,0,1.732-0.102,2.446-0.306c0.714-0.204,1.325-0.407,1.834-0.713c0.51-0.307,0.917-0.714,1.223-1.223
			c0.306-0.51,0.408-1.019,0.408-1.631c0-0.611-0.102-1.121-0.408-1.529s-0.713-0.815-1.325-1.121
			c-0.611-0.306-1.426-0.611-2.446-0.917c-1.019-0.306-2.242-0.611-3.668-0.815c-1.631-0.408-3.058-0.815-4.281-1.325
			c-1.223-0.509-2.242-1.121-2.956-1.732s-1.325-1.427-1.732-2.344c-0.408-0.917-0.51-1.936-0.51-3.057
			c0-1.223,0.306-2.344,0.815-3.363c0.51-1.019,1.223-1.937,2.141-2.65c0.917-0.713,2.038-1.325,3.363-1.732
			c1.325-0.408,2.751-0.611,4.382-0.611s3.159,0.204,4.586,0.713c1.426,0.509,2.547,1.121,3.567,1.937
			c1.02,0.815,1.834,1.936,2.344,3.159s0.917,2.65,0.917,4.179h-5.197c-0.407-3.363-2.446-4.994-6.013-4.994
			c-1.732,0-3.159,0.306-4.077,0.917c-0.917,0.612-1.426,1.427-1.426,2.446c0,0.408,0.102,0.815,0.305,1.121
			c0.204,0.306,0.51,0.611,1.02,0.917c0.408,0.306,1.019,0.51,1.732,0.714c0.713,0.204,1.529,0.407,2.548,0.611
			c0.917,0.204,1.732,0.407,2.649,0.611c0.918,0.204,1.835,0.51,2.65,0.815c0.917,0.306,1.732,0.713,2.446,1.121
			c0.815,0.408,1.426,1.019,2.039,1.631c0.611,0.611,1.019,1.324,1.427,2.242c0.306,0.816,0.51,1.834,0.51,2.956
			c0,1.325-0.307,2.548-0.815,3.669c-0.51,1.121-1.325,2.038-2.345,2.854c-1.019,0.815-2.14,1.427-3.465,1.835
			C293.488,427.832,291.959,428.139,290.328,428.139z"/>
		<path fill="#FFFFFF" d="M320.088,397.971c2.038,0,3.873,0.408,5.605,1.121s3.159,1.733,4.484,3.058
			c1.223,1.325,2.242,2.854,2.955,4.79c0.714,1.834,1.02,3.873,1.02,6.217c0,2.242-0.306,4.28-1.02,6.115
			c-0.713,1.835-1.63,3.465-2.854,4.79c-1.223,1.325-2.751,2.345-4.484,3.058c-1.732,0.713-3.566,1.121-5.707,1.121
			s-3.975-0.408-5.707-1.121c-1.733-0.713-3.16-1.732-4.485-3.058c-1.223-1.325-2.241-2.955-2.854-4.79
			c-0.713-1.834-1.019-3.873-1.019-6.115c0-2.242,0.306-4.382,1.019-6.217c0.714-1.834,1.631-3.465,2.956-4.79
			c1.223-1.325,2.752-2.344,4.484-3.058C316.215,398.277,318.05,397.971,320.088,397.971z M320.088,423.246
			c1.223,0,2.344-0.203,3.465-0.713c1.02-0.51,1.937-1.122,2.65-2.039c0.713-0.917,1.325-1.937,1.732-3.261
			c0.407-1.223,0.611-2.65,0.611-4.28c0-1.631-0.204-3.058-0.611-4.281s-1.02-2.344-1.732-3.159
			c-0.714-0.917-1.631-1.529-2.65-1.937c-1.019-0.408-2.14-0.713-3.363-0.713c-1.223,0-2.344,0.204-3.465,0.713
			c-1.121,0.509-1.937,1.121-2.752,2.038c-0.815,0.917-1.325,1.937-1.732,3.16c-0.408,1.223-0.611,2.649-0.611,4.28
			s0.203,3.058,0.611,4.28c0.407,1.223,1.02,2.344,1.732,3.262c0.714,0.917,1.631,1.528,2.649,2.038
			C317.642,423.145,318.865,423.246,320.088,423.246z"/>
		<path fill="#FFFFFF" d="M358.714,427.629H339.86v-29.25h5.401v24.256h13.453V427.629z"/>
		<path fill="#FFFFFF" d="M388.371,427.629h-6.114l-3.16-8.357h-10.191l-3.058,8.357h-5.809l11.21-29.25h5.198L388.371,427.629z
			 M377.365,414.583l-3.566-9.274l-3.363,9.274H377.365z"/>
		<path fill="#FFFFFF" d="M416.806,427.629h-5.91l-2.752-7.95c-0.204-0.509-0.51-1.019-0.815-1.529
			c-0.307-0.509-0.714-0.815-1.121-1.223c-0.407-0.306-0.918-0.612-1.427-0.815c-0.51-0.204-1.121-0.306-1.733-0.306h-5.809v11.721
			h-5.401v-29.148h13.146c0.816,0,1.529,0,2.242,0c0.714,0,1.428,0.102,2.039,0.204s1.223,0.306,1.834,0.612
			c0.612,0.306,1.121,0.611,1.732,1.121c0.51,0.408,0.918,0.917,1.224,1.427c0.407,0.51,0.611,1.019,0.917,1.631
			c0.204,0.611,0.407,1.121,0.51,1.732c0.102,0.611,0.204,1.223,0.204,1.834c0,1.834-0.408,3.363-1.325,4.586
			c-0.815,1.325-2.039,2.242-3.567,2.956c1.223,0.917,2.242,2.446,3.058,4.484L416.806,427.629z M397.136,410.813h7.236
			c1.02,0,1.835-0.102,2.548-0.204c0.714-0.102,1.224-0.306,1.733-0.713c0.407-0.306,0.814-0.713,1.019-1.223
			c0.204-0.509,0.306-1.121,0.306-1.834c0-1.325-0.407-2.242-1.223-2.854s-2.038-0.917-3.771-0.917h-7.848V410.813z"/>
	</g>
	<g>
		<g>
			<path fill="#FFFFFF" d="M233.358,435.272c0,0.51-0.204,0.917-0.611,1.224c-0.408,0.305-0.918,0.407-1.631,0.407
				c-0.713,0-1.325-0.103-1.732-0.306v-0.51c0.204,0.102,0.509,0.204,0.815,0.204c0.306,0,0.612,0.102,0.917,0.102
				c0.51,0,0.815-0.102,1.121-0.306c0.204-0.204,0.408-0.408,0.408-0.713c0-0.204,0-0.408-0.102-0.511
				c-0.102-0.102-0.204-0.306-0.408-0.407s-0.509-0.204-0.917-0.407c-0.611-0.204-1.019-0.408-1.223-0.714
				c-0.204-0.306-0.408-0.611-0.408-1.121s0.204-0.815,0.509-1.121c0.408-0.306,0.815-0.407,1.427-0.407
				c0.611,0,1.223,0.102,1.732,0.306l-0.204,0.611c-0.509-0.204-1.019-0.306-1.528-0.306c-0.408,0-0.713,0.102-0.917,0.204
				c-0.204,0.102-0.306,0.407-0.306,0.713c0,0.204,0,0.408,0.102,0.51s0.204,0.306,0.408,0.407c0.204,0.103,0.509,0.204,0.815,0.408
				c0.611,0.203,1.121,0.51,1.325,0.713C233.256,434.559,233.358,434.864,233.358,435.272z"/>
			<path fill="#FFFFFF" d="M243.651,436.903l-0.815-1.937h-2.446l-0.713,1.937h-0.714l2.446-6.217h0.611l2.446,6.217H243.651z
				 M242.734,434.355l-0.713-1.937c-0.102-0.204-0.204-0.51-0.306-0.917c-0.102,0.306-0.102,0.611-0.306,0.917l-0.713,1.937H242.734
				z"/>
			<path fill="#FFFFFF" d="M254.047,430.788h0.815l-2.344,6.115h-0.714l-2.242-6.217h0.713l1.427,3.975
				c0.204,0.51,0.306,0.917,0.408,1.325c0.102-0.408,0.204-0.918,0.408-1.325L254.047,430.788z"/>
			<path fill="#FFFFFF" d="M264.238,436.903h-3.465v-6.217h3.465v0.611h-2.751v2.038h2.548v0.714h-2.548v2.242h2.751V436.903z"/>
			<path fill="#FFFFFF" d="M282.176,432.521c0,0.611-0.204,1.121-0.612,1.427c-0.407,0.306-1.019,0.51-1.834,0.51h-0.713v2.446
				h-0.713v-6.217h1.631C281.36,430.788,282.176,431.399,282.176,432.521z M279.016,433.846h0.611c0.612,0,1.121-0.103,1.427-0.306
				c0.306-0.204,0.407-0.51,0.407-1.02c0-0.407-0.102-0.713-0.407-0.917c-0.306-0.204-0.713-0.306-1.223-0.306h-0.815V433.846z"/>
			<path fill="#FFFFFF" d="M293.998,433.846c0,1.019-0.204,1.732-0.713,2.344c-0.51,0.611-1.223,0.815-2.039,0.815
				c-0.917,0-1.631-0.306-2.14-0.815c-0.51-0.51-0.714-1.325-0.714-2.344c0-1.02,0.204-1.835,0.714-2.344
				c0.509-0.51,1.223-0.815,2.14-0.815s1.631,0.306,2.039,0.815C293.794,432.113,293.998,432.826,293.998,433.846z M289.106,433.846
				c0,0.815,0.204,1.427,0.509,1.937c0.306,0.407,0.917,0.611,1.529,0.611c0.713,0,1.223-0.204,1.528-0.611
				c0.306-0.407,0.51-1.02,0.51-1.937c0-0.815-0.204-1.427-0.51-1.937c-0.306-0.407-0.815-0.611-1.528-0.611
				c-0.714,0-1.223,0.204-1.529,0.611C289.31,432.317,289.106,433.03,289.106,433.846z"/>
			<path fill="#FFFFFF" d="M300.622,436.903v-6.217h0.713v5.503h2.752v0.611h-3.465V436.903z"/>
			<path fill="#FFFFFF" d="M314.177,436.903l-0.815-1.937h-2.446l-0.713,1.937h-0.714l2.446-6.217h0.611l2.446,6.217H314.177z
				 M313.157,434.355l-0.713-1.937c-0.103-0.204-0.204-0.51-0.306-0.917c-0.103,0.306-0.103,0.611-0.307,0.917l-0.713,1.937H313.157
				z"/>
			<path fill="#FFFFFF" d="M321.616,434.355v2.548h-0.713v-6.217h1.732c0.714,0,1.325,0.102,1.631,0.407
				c0.407,0.306,0.509,0.714,0.509,1.325c0,0.815-0.407,1.324-1.223,1.631l1.631,2.751h-0.815l-1.528-2.548h-1.224V434.355z
				 M321.616,433.743h1.02c0.51,0,0.917-0.102,1.121-0.305c0.204-0.204,0.306-0.51,0.306-0.918c0-0.407-0.102-0.713-0.408-0.917
				c-0.305-0.204-0.611-0.306-1.12-0.306h-0.918V433.743L321.616,433.743z"/>
			<path fill="#FFFFFF" d="M341.592,433.743h2.141v2.956c-0.306,0.102-0.611,0.204-1.02,0.204c-0.306,0.102-0.713,0.102-1.223,0.102
				c-0.918,0-1.631-0.306-2.141-0.815s-0.815-1.325-0.815-2.344c0-0.611,0.103-1.223,0.408-1.732s0.611-0.815,1.121-1.121
				c0.509-0.306,1.02-0.408,1.732-0.408c0.611,0,1.223,0.103,1.834,0.408l-0.305,0.611c-0.51-0.204-1.121-0.306-1.632-0.306
				c-0.713,0-1.324,0.204-1.732,0.713c-0.407,0.408-0.611,1.02-0.611,1.835s0.204,1.427,0.611,1.937
				c0.408,0.51,1.02,0.611,1.835,0.611c0.408,0,0.815,0,1.223-0.102v-1.937h-1.427V433.743z"/>
			<path fill="#FFFFFF" d="M355.759,433.846c0,1.019-0.204,1.732-0.714,2.344s-1.223,0.815-2.038,0.815
				c-0.917,0-1.631-0.306-2.141-0.815s-0.713-1.325-0.713-2.344c0-1.02,0.203-1.835,0.713-2.344c0.51-0.51,1.224-0.815,2.141-0.815
				s1.63,0.306,2.038,0.815C355.452,432.011,355.759,432.826,355.759,433.846z M350.866,433.846c0,0.815,0.204,1.427,0.51,1.937
				c0.306,0.407,0.917,0.611,1.528,0.611c0.714,0,1.224-0.204,1.529-0.611s0.51-1.02,0.51-1.937c0-0.815-0.204-1.427-0.51-1.937
				c-0.306-0.407-0.815-0.611-1.529-0.611c-0.713,0-1.223,0.204-1.528,0.611C351.071,432.317,350.866,433.03,350.866,433.846z"/>
			<path fill="#FFFFFF" d="M373.288,435.272c0,0.51-0.204,0.917-0.611,1.224c-0.408,0.305-0.918,0.407-1.631,0.407
				c-0.714,0-1.325-0.103-1.732-0.306v-0.51c0.203,0.102,0.51,0.204,0.815,0.204s0.611,0.102,0.917,0.102
				c0.51,0,0.815-0.102,1.121-0.306c0.203-0.204,0.407-0.408,0.407-0.713c0-0.204,0-0.408-0.102-0.511
				c-0.103-0.102-0.204-0.306-0.407-0.407c-0.204-0.102-0.51-0.204-0.918-0.407c-0.611-0.204-1.019-0.408-1.223-0.714
				s-0.408-0.611-0.408-1.121s0.204-0.815,0.51-1.121c0.408-0.306,0.815-0.407,1.427-0.407c0.612,0,1.224,0.102,1.733,0.306
				l-0.204,0.611c-0.51-0.204-1.02-0.306-1.529-0.306c-0.407,0-0.713,0.102-0.917,0.204c-0.204,0.102-0.306,0.407-0.306,0.713
				c0,0.204,0,0.408,0.102,0.51c0.103,0.102,0.204,0.306,0.408,0.407c0.204,0.103,0.509,0.204,0.815,0.408
				c0.611,0.203,1.121,0.51,1.325,0.713C373.084,434.457,373.288,434.864,373.288,435.272z"/>
			<path fill="#FFFFFF" d="M385.111,433.846c0,1.019-0.204,1.732-0.714,2.344c-0.509,0.611-1.223,0.815-2.038,0.815
				c-0.917,0-1.631-0.306-2.141-0.815c-0.509-0.51-0.713-1.325-0.713-2.344c0-1.02,0.204-1.835,0.713-2.344
				c0.51-0.51,1.224-0.815,2.141-0.815s1.631,0.306,2.038,0.815C384.805,432.011,385.111,432.826,385.111,433.846z M380.116,433.846
				c0,0.815,0.204,1.427,0.51,1.937c0.306,0.407,0.917,0.611,1.528,0.611c0.714,0,1.224-0.204,1.529-0.611s0.509-1.02,0.509-1.937
				c0-0.815-0.203-1.427-0.509-1.937c-0.306-0.407-0.815-0.611-1.529-0.611c-0.713,0-1.223,0.204-1.528,0.611
				C380.321,432.317,380.116,433.03,380.116,433.846z"/>
			<path fill="#FFFFFF" d="M391.633,436.903v-6.217h0.713v5.503h2.752v0.611h-3.465V436.903z"/>
			<path fill="#FFFFFF" d="M405.188,436.903l-0.815-1.937h-2.445l-0.714,1.937H400.5l2.445-6.217h0.611l2.446,6.217H405.188z
				 M404.271,434.355l-0.714-1.937c-0.102-0.204-0.203-0.51-0.306-0.917c-0.102,0.306-0.102,0.611-0.306,0.917l-0.713,1.937H404.271
				z"/>
			<path fill="#FFFFFF" d="M412.73,434.355v2.548h-0.714v-6.217h1.733c0.713,0,1.324,0.102,1.63,0.407
				c0.408,0.306,0.51,0.714,0.51,1.325c0,0.815-0.407,1.324-1.223,1.631l1.631,2.751h-0.815l-1.529-2.548h-1.223V434.355z
				 M412.73,433.743h1.02c0.509,0,0.917-0.102,1.121-0.305c0.203-0.204,0.306-0.51,0.306-0.918c0-0.407-0.103-0.713-0.408-0.917
				s-0.611-0.306-1.121-0.306h-0.917V433.743L412.73,433.743z"/>
		</g>
	</g>
</g>
</svg>
